<?xml version="1.0" encoding="UTF-8"?>
<svg id="a" data-name="Warstwa 1" xmlns="http://www.w3.org/2000/svg" xmlns:xlink="http://www.w3.org/1999/xlink" viewBox="0 0 96.35 27.53">
  <defs>
    <linearGradient id="b" data-name="Gradient bez nazwy 7" x1="68.14" y1="12.1" x2="77.18" y2="22.1" gradientUnits="userSpaceOnUse">
      <stop offset="0" stop-color="#205296"/>
      <stop offset=".12" stop-color="#215699"/>
      <stop offset="1" stop-color="#2b75b4"/>
    </linearGradient>
    <linearGradient id="c" data-name="Gradient bez nazwy 6" x1="67.83" y1="23.09" x2="78.05" y2="10.92" gradientUnits="userSpaceOnUse">
      <stop offset="0" stop-color="#2b265f"/>
      <stop offset=".06" stop-color="#322561"/>
      <stop offset=".7" stop-color="#7e1c76"/>
      <stop offset="1" stop-color="#9d197f"/>
    </linearGradient>
    <linearGradient id="d" data-name="Gradient bez nazwy 2" x1=".07" y1="3.77" x2="19.14" y2="3.68" gradientUnits="userSpaceOnUse">
      <stop offset="0" stop-color="#205296"/>
      <stop offset="1" stop-color="#2b75b4"/>
    </linearGradient>
    <linearGradient id="e" data-name="Gradient bez nazwy 2" x1="1.93" y1="24.5" x2="19.94" y2="24.41" xlink:href="#d"/>
    <linearGradient id="f" data-name="Gradient bez nazwy 10" x1="16.22" y1="2.39" x2="4.23" y2="25.1" gradientUnits="userSpaceOnUse">
      <stop offset="0" stop-color="#2b265f"/>
      <stop offset=".05" stop-color="#322561"/>
      <stop offset=".64" stop-color="#7e1c76"/>
      <stop offset=".9" stop-color="#9d197f"/>
    </linearGradient>
    <linearGradient id="g" data-name="Gradient bez nazwy 7" x1="26.62" y1="12.08" x2="35.66" y2="22.08" xlink:href="#b"/>
    <linearGradient id="h" data-name="Gradient bez nazwy 8" x1="26.31" y1="23.08" x2="36.53" y2="10.91" gradientUnits="userSpaceOnUse">
      <stop offset="0" stop-color="#2b265f"/>
      <stop offset=".06" stop-color="#322561"/>
      <stop offset=".7" stop-color="#7e1c76"/>
      <stop offset="1" stop-color="#9d197f"/>
    </linearGradient>
    <linearGradient id="i" data-name="Gradient bez nazwy 9" x1="85.82" y1="8.15" x2="85.74" y2="17.45" gradientUnits="userSpaceOnUse">
      <stop offset="0" stop-color="#2b265f"/>
      <stop offset=".06" stop-color="#322561"/>
      <stop offset=".67" stop-color="#7e1c76"/>
      <stop offset=".96" stop-color="#9d197f"/>
    </linearGradient>
    <linearGradient id="j" data-name="Gradient bez nazwy 7" x1="91.81" y1="7.74" x2="84.93" y2="26.81" xlink:href="#b"/>
    <linearGradient id="k" data-name="Gradient bez nazwy 8" x1="43.85" y1="1.12" x2="43.92" y2="15.63" xlink:href="#h"/>
    <linearGradient id="l" data-name="Gradient bez nazwy 7" x1="45.51" y1="7.54" x2="55.75" y2="24.63" xlink:href="#b"/>
  </defs>
  <g>
    <path d="m77.2,19.61l3.61,3.63c-.45.65-.98,1.24-1.58,1.76-.59.51-1.24.95-1.93,1.31-.69.37-1.42.64-2.19.83-.76.18-1.55.28-2.35.28-1.37,0-2.64-.26-3.84-.76-1.2-.51-2.25-1.21-3.15-2.12-.89-.9-1.6-1.97-2.12-3.22-.52-1.25-.78-2.62-.78-4.11s.26-2.93.78-4.19c.52-1.27,1.23-2.34,2.12-3.24.9-.89,1.95-1.58,3.15-2.07,1.2-.5,2.47-.74,3.84-.74.8,0,1.59.09,2.36.28.77.2,1.51.47,2.2.84.69.36,1.34.8,1.94,1.32.6.53,1.13,1.11,1.59,1.76l-3,3.62-3.72-2.64c-.23-.08-.46-.14-.68-.16-.22-.03-.45-.04-.69-.04-.68,0-1.31.12-1.91.37-.6.25-1.11.6-1.55,1.06-.44.46-.79,1.01-1.04,1.65-.26.65-.38,1.37-.38,2.18,0,.18,0,.38.03.61.01.23.04.46.09.7.04.23.09.46.15.68.06.21.14.41.23.57l3.22,2.55c.19.06.38.1.58.12.19.02.38.03.58.03.48,0,.94-.07,1.39-.2.44-.14.86-.32,1.25-.57.39-.25.74-.55,1.05-.9.31-.36.56-.75.75-1.19Z" style="fill: url(#b);"/>
    <path d="m80.84,11.17c-.45-.65-.98-1.23-1.59-1.76-.6-.52-1.25-.96-1.94-1.33l-3.19,4.07-5.74,7.62h0s0,.01,0,.01c.68,1.26,1.83,2.2,3.2,2.54h0s0,0,0,0c0,0,0,0,0,0l5.86-7.06s0,0,0-.01l3.38-4.08Z" style="fill: url(#c);"/>
  </g>
  <g>
    <path d="m0,1.14v5.18h17.3l2.75-5.18H0Z" style="fill: url(#d);"/>
    <polygon points="20.05 21.86 20.05 27.04 0 27.04 2.77 21.86 20.05 21.86" style="fill: url(#e);"/>
    <polygon points="20.05 1.14 13.83 1.14 11.06 6.32 8.62 10.88 8.22 11.64 8.22 11.64 2.77 21.86 9.03 21.86 17.3 6.32 17.29 6.32 20.05 1.14" style="fill: url(#f);"/>
  </g>
  <g>
    <path d="m35.68,19.6l3.61,3.63c-.45.65-.98,1.24-1.58,1.76-.59.51-1.24.95-1.93,1.31-.69.37-1.42.64-2.19.83-.76.18-1.55.28-2.35.28-1.37,0-2.64-.26-3.84-.76-1.2-.51-2.25-1.21-3.15-2.12-.89-.9-1.6-1.97-2.12-3.22-.52-1.25-.78-2.62-.78-4.11s.26-2.93.78-4.19c.52-1.27,1.23-2.34,2.12-3.24.9-.89,1.95-1.58,3.15-2.07,1.2-.5,2.47-.74,3.84-.74.8,0,1.59.09,2.36.28.77.2,1.51.47,2.2.84.69.36,1.34.8,1.94,1.32.6.53,1.13,1.11,1.59,1.76l-3,3.62-3.72-2.64c-.23-.08-.46-.14-.68-.16-.22-.03-.45-.04-.69-.04-.68,0-1.31.12-1.91.37-.6.25-1.11.6-1.55,1.06-.44.46-.79,1.01-1.04,1.65-.26.65-.38,1.37-.38,2.18,0,.18,0,.38.03.61.01.23.04.46.09.7.04.23.09.46.15.68.06.21.14.41.23.57l3.22,2.55c.19.06.38.1.58.12.19.02.38.03.58.03.48,0,.94-.07,1.39-.2.44-.14.86-.32,1.25-.57.39-.25.74-.55,1.05-.9.31-.36.56-.75.75-1.19Z" style="fill: url(#g);"/>
    <path d="m39.32,11.16c-.45-.65-.98-1.23-1.59-1.76-.6-.52-1.25-.96-1.94-1.33l-3.19,4.07-5.74,7.62h0s0,.01,0,.01c.68,1.26,1.83,2.2,3.2,2.54h0s0,0,0,0c0,0,0,0,0,0l5.86-7.06s0,0,0-.01l3.38-4.08Z" style="fill: url(#h);"/>
  </g>
  <g>
    <rect x="83.32" y="7.7" width="4.93" height="9.38" style="fill: url(#i);"/>
    <path d="m96.35,12.65h-4.7s-3.4.46-3.4,3.74v10.66h-4.93v-13.24s2.73-6.4,9.08-6.07h3.95v4.91Z" style="fill: url(#j);"/>
  </g>
  <g>
    <path d="m46.36,0v8.96c-2.99,2.7-3.39,3.92-4.85,8.04-.01.02-.1,0-.1,0V0h4.95Z" style="fill: url(#k);"/>
    <path d="m61.05,15.6c-.16-1.02-.45-1.99-.86-2.88-.28-.6-.61-1.17-.98-1.7-.29-.39-.6-.77-.94-1.13-.05-.05-.09-.1-.14-.14-1.78-1.79-4.18-2.88-6.84-2.88-1.8,0-3.49.5-4.94,1.38-2.95,1.79-4.93,5.13-4.93,8.95,0,3.38,1.55,6.38,3.94,8.26.15.12.29.22.44.33,1.57,1.1,3.46,1.74,5.49,1.74,1.71,0,3.31-.45,4.7-1.24.14-.09.28-.17.42-.25,2.58-1.64,4.38-4.48,4.7-7.78.03-.35.05-.7.05-1.06,0-.54-.04-1.07-.11-1.6Zm-5.24,3.7c-.26.63-.62,1.19-1.06,1.66-.45.47-.97.84-1.56,1.11-.3.13-.61.24-.93.31-.16.03-.32.06-.48.07-.16.02-.33.03-.49.03-.34,0-.67-.03-.99-.1-.16-.03-.32-.09-.48-.13-.15-.05-.3-.11-.45-.18-.59-.27-1.11-.64-1.56-1.11-.44-.47-.79-1.03-1.05-1.66-.25-.64-.38-1.33-.38-2.08,0-.68.13-1.33.38-1.96.26-.63.61-1.19,1.05-1.68.45-.49.97-.88,1.56-1.18.6-.29,1.23-.44,1.91-.44s1.31.13,1.91.4c.59.26,1.11.63,1.56,1.1.44.47.8,1.03,1.06,1.67.25.65.38,1.34.38,2.09s-.13,1.44-.38,2.08Z" style="fill: url(#l);"/>
  </g>
</svg>