<?xml version="1.0" encoding="UTF-8"?>
<svg id="a" data-name="Warstwa 1" xmlns="http://www.w3.org/2000/svg" xmlns:xlink="http://www.w3.org/1999/xlink" viewBox="0 0 118.94 118.94">
  <defs>
    <filter id="b" data-name="drop-shadow-1" filterUnits="userSpaceOnUse">
      <feOffset dx="2" dy="2"/>
      <feGaussianBlur result="c" stdDeviation="0"/>
      <feFlood flood-color="#000" flood-opacity=".6"/>
      <feComposite in2="c" operator="in"/>
      <feComposite in="SourceGraphic"/>
    </filter>
  </defs>
  <rect width="118.94" height="118.94" rx="25" ry="25" style="fill: #162943;"/>
  <g style="filter: url(#b);">
    <path d="m40.77,78.79h-6.14c-.32-1.19-.53-2.52-.64-3.82-2.15,2.89-5.93,4.47-11.31,4.47-11.24,0-17.52-8.5-17.52-19.52,0-11.64,6.77-20.41,18.98-20.41,9.96,0,15.83,5.62,16.77,12.23h-8.37c-.79-2.59-2.84-5.66-8.51-5.66-7.95,0-10.22,6.65-10.22,13.48s2.59,13.23,10.27,13.23c7.16,0,8.48-4.97,8.48-8.43v-.35h-8.49v-6.86h16.7v21.67Z" style="fill: #f4941d;"/>
    <path d="m46.99,78.79v-.51c0-6.44,2.89-11.67,10.89-17.5,5.22-3.81,6.8-5.13,6.8-8.36s-1.55-5-4.67-5c-3.62,0-4.93,2.22-5.44,5.43h-7.76c.53-6.38,4.7-11.69,13.2-11.69,9.5,0,12.75,5.65,12.75,11.19s-2.32,7.99-9.12,12.76c-4.56,3.2-6.39,5.31-7.02,6.97h17.51l-1,6.71h-26.14Z" style="fill: #878787;"/>
    <path d="m87.65,69.84l-3.02,8.95h-8.23l13.15-38.72h10.52l13.72,38.72h-8.8l-3.18-8.95h-14.15Zm12.34-6.86c-2.75-8.17-4.5-13.39-5.44-16.87h-.06c-.96,3.82-2.89,9.89-5.09,16.87h10.58Z" style="fill: #1f81c4;"/>
  </g>
</svg>